<?xml version="1.0" encoding="utf-8"?>
<svg xmlns="http://www.w3.org/2000/svg" xmlns:xlink="http://www.w3.org/1999/xlink" width="600" height="400" viewBox="0 0 2400 1600">
<defs>
  <clipPath id="clip3200">
    <rect x="0" y="0" width="2400" height="1600"/>
  </clipPath>
</defs>
<path clip-path="url(#clip3200)" d="
M0 1600 L2400 1600 L2400 0 L0 0  Z
  " fill="#ffffff" fill-rule="evenodd" fill-opacity="1"/>
<defs>
  <clipPath id="clip3201">
    <rect x="480" y="0" width="1681" height="1600"/>
  </clipPath>
</defs>
<path clip-path="url(#clip3200)" d="
M247.807 1487.47 L2352.76 1487.47 L2352.76 47.2441 L247.807 47.2441  Z
  " fill="#ffffff" fill-rule="evenodd" fill-opacity="1"/>
<defs>
  <clipPath id="clip3202">
    <rect x="247" y="47" width="2106" height="1441"/>
  </clipPath>
</defs>
<polyline clip-path="url(#clip3202)" style="stroke:#000000; stroke-width:2; stroke-opacity:0.1; fill:none" points="
  307.381,1487.47 307.381,47.2441 
  "/>
<polyline clip-path="url(#clip3202)" style="stroke:#000000; stroke-width:2; stroke-opacity:0.1; fill:none" points="
  803.831,1487.47 803.831,47.2441 
  "/>
<polyline clip-path="url(#clip3202)" style="stroke:#000000; stroke-width:2; stroke-opacity:0.1; fill:none" points="
  1300.28,1487.47 1300.28,47.2441 
  "/>
<polyline clip-path="url(#clip3202)" style="stroke:#000000; stroke-width:2; stroke-opacity:0.1; fill:none" points="
  1796.73,1487.47 1796.73,47.2441 
  "/>
<polyline clip-path="url(#clip3202)" style="stroke:#000000; stroke-width:2; stroke-opacity:0.1; fill:none" points="
  2293.18,1487.47 2293.18,47.2441 
  "/>
<polyline clip-path="url(#clip3202)" style="stroke:#000000; stroke-width:2; stroke-opacity:0.1; fill:none" points="
  247.807,1446.74 2352.76,1446.74 
  "/>
<polyline clip-path="url(#clip3202)" style="stroke:#000000; stroke-width:2; stroke-opacity:0.1; fill:none" points="
  247.807,1178.22 2352.76,1178.22 
  "/>
<polyline clip-path="url(#clip3202)" style="stroke:#000000; stroke-width:2; stroke-opacity:0.1; fill:none" points="
  247.807,909.702 2352.76,909.702 
  "/>
<polyline clip-path="url(#clip3202)" style="stroke:#000000; stroke-width:2; stroke-opacity:0.1; fill:none" points="
  247.807,641.182 2352.76,641.182 
  "/>
<polyline clip-path="url(#clip3202)" style="stroke:#000000; stroke-width:2; stroke-opacity:0.1; fill:none" points="
  247.807,372.663 2352.76,372.663 
  "/>
<polyline clip-path="url(#clip3202)" style="stroke:#000000; stroke-width:2; stroke-opacity:0.1; fill:none" points="
  247.807,104.143 2352.76,104.143 
  "/>
<polyline clip-path="url(#clip3202)" style="stroke:#000000; stroke-width:2; stroke-opacity:0.05; fill:none" points="
  406.671,1487.47 406.671,47.2441 
  "/>
<polyline clip-path="url(#clip3202)" style="stroke:#000000; stroke-width:2; stroke-opacity:0.05; fill:none" points="
  505.961,1487.47 505.961,47.2441 
  "/>
<polyline clip-path="url(#clip3202)" style="stroke:#000000; stroke-width:2; stroke-opacity:0.05; fill:none" points="
  605.251,1487.47 605.251,47.2441 
  "/>
<polyline clip-path="url(#clip3202)" style="stroke:#000000; stroke-width:2; stroke-opacity:0.05; fill:none" points="
  704.541,1487.47 704.541,47.2441 
  "/>
<polyline clip-path="url(#clip3202)" style="stroke:#000000; stroke-width:2; stroke-opacity:0.05; fill:none" points="
  903.121,1487.47 903.121,47.2441 
  "/>
<polyline clip-path="url(#clip3202)" style="stroke:#000000; stroke-width:2; stroke-opacity:0.05; fill:none" points="
  1002.41,1487.47 1002.41,47.2441 
  "/>
<polyline clip-path="url(#clip3202)" style="stroke:#000000; stroke-width:2; stroke-opacity:0.05; fill:none" points="
  1101.7,1487.47 1101.7,47.2441 
  "/>
<polyline clip-path="url(#clip3202)" style="stroke:#000000; stroke-width:2; stroke-opacity:0.05; fill:none" points="
  1200.99,1487.47 1200.99,47.2441 
  "/>
<polyline clip-path="url(#clip3202)" style="stroke:#000000; stroke-width:2; stroke-opacity:0.05; fill:none" points="
  1399.57,1487.47 1399.57,47.2441 
  "/>
<polyline clip-path="url(#clip3202)" style="stroke:#000000; stroke-width:2; stroke-opacity:0.05; fill:none" points="
  1498.86,1487.47 1498.86,47.2441 
  "/>
<polyline clip-path="url(#clip3202)" style="stroke:#000000; stroke-width:2; stroke-opacity:0.05; fill:none" points="
  1598.15,1487.47 1598.15,47.2441 
  "/>
<polyline clip-path="url(#clip3202)" style="stroke:#000000; stroke-width:2; stroke-opacity:0.05; fill:none" points="
  1697.44,1487.47 1697.44,47.2441 
  "/>
<polyline clip-path="url(#clip3202)" style="stroke:#000000; stroke-width:2; stroke-opacity:0.05; fill:none" points="
  1896.02,1487.47 1896.02,47.2441 
  "/>
<polyline clip-path="url(#clip3202)" style="stroke:#000000; stroke-width:2; stroke-opacity:0.05; fill:none" points="
  1995.31,1487.47 1995.31,47.2441 
  "/>
<polyline clip-path="url(#clip3202)" style="stroke:#000000; stroke-width:2; stroke-opacity:0.05; fill:none" points="
  2094.6,1487.47 2094.6,47.2441 
  "/>
<polyline clip-path="url(#clip3202)" style="stroke:#000000; stroke-width:2; stroke-opacity:0.05; fill:none" points="
  2193.89,1487.47 2193.89,47.2441 
  "/>
<polyline clip-path="url(#clip3202)" style="stroke:#000000; stroke-width:2; stroke-opacity:0.05; fill:none" points="
  247.807,1393.04 2352.76,1393.04 
  "/>
<polyline clip-path="url(#clip3202)" style="stroke:#000000; stroke-width:2; stroke-opacity:0.05; fill:none" points="
  247.807,1339.33 2352.76,1339.33 
  "/>
<polyline clip-path="url(#clip3202)" style="stroke:#000000; stroke-width:2; stroke-opacity:0.05; fill:none" points="
  247.807,1285.63 2352.76,1285.63 
  "/>
<polyline clip-path="url(#clip3202)" style="stroke:#000000; stroke-width:2; stroke-opacity:0.05; fill:none" points="
  247.807,1231.92 2352.76,1231.92 
  "/>
<polyline clip-path="url(#clip3202)" style="stroke:#000000; stroke-width:2; stroke-opacity:0.05; fill:none" points="
  247.807,1124.52 2352.76,1124.52 
  "/>
<polyline clip-path="url(#clip3202)" style="stroke:#000000; stroke-width:2; stroke-opacity:0.05; fill:none" points="
  247.807,1070.81 2352.76,1070.81 
  "/>
<polyline clip-path="url(#clip3202)" style="stroke:#000000; stroke-width:2; stroke-opacity:0.05; fill:none" points="
  247.807,1017.11 2352.76,1017.11 
  "/>
<polyline clip-path="url(#clip3202)" style="stroke:#000000; stroke-width:2; stroke-opacity:0.05; fill:none" points="
  247.807,963.405 2352.76,963.405 
  "/>
<polyline clip-path="url(#clip3202)" style="stroke:#000000; stroke-width:2; stroke-opacity:0.05; fill:none" points="
  247.807,855.998 2352.76,855.998 
  "/>
<polyline clip-path="url(#clip3202)" style="stroke:#000000; stroke-width:2; stroke-opacity:0.05; fill:none" points="
  247.807,802.294 2352.76,802.294 
  "/>
<polyline clip-path="url(#clip3202)" style="stroke:#000000; stroke-width:2; stroke-opacity:0.05; fill:none" points="
  247.807,748.59 2352.76,748.59 
  "/>
<polyline clip-path="url(#clip3202)" style="stroke:#000000; stroke-width:2; stroke-opacity:0.05; fill:none" points="
  247.807,694.886 2352.76,694.886 
  "/>
<polyline clip-path="url(#clip3202)" style="stroke:#000000; stroke-width:2; stroke-opacity:0.05; fill:none" points="
  247.807,587.478 2352.76,587.478 
  "/>
<polyline clip-path="url(#clip3202)" style="stroke:#000000; stroke-width:2; stroke-opacity:0.05; fill:none" points="
  247.807,533.774 2352.76,533.774 
  "/>
<polyline clip-path="url(#clip3202)" style="stroke:#000000; stroke-width:2; stroke-opacity:0.05; fill:none" points="
  247.807,480.071 2352.76,480.071 
  "/>
<polyline clip-path="url(#clip3202)" style="stroke:#000000; stroke-width:2; stroke-opacity:0.05; fill:none" points="
  247.807,426.367 2352.76,426.367 
  "/>
<polyline clip-path="url(#clip3202)" style="stroke:#000000; stroke-width:2; stroke-opacity:0.05; fill:none" points="
  247.807,318.959 2352.76,318.959 
  "/>
<polyline clip-path="url(#clip3202)" style="stroke:#000000; stroke-width:2; stroke-opacity:0.05; fill:none" points="
  247.807,265.255 2352.76,265.255 
  "/>
<polyline clip-path="url(#clip3202)" style="stroke:#000000; stroke-width:2; stroke-opacity:0.05; fill:none" points="
  247.807,211.551 2352.76,211.551 
  "/>
<polyline clip-path="url(#clip3202)" style="stroke:#000000; stroke-width:2; stroke-opacity:0.05; fill:none" points="
  247.807,157.847 2352.76,157.847 
  "/>
<polyline clip-path="url(#clip3202)" style="stroke:#000000; stroke-width:2; stroke-opacity:0.05; fill:none" points="
  247.807,50.4395 2352.76,50.4395 
  "/>
<polyline clip-path="url(#clip3200)" style="stroke:#000000; stroke-width:4; stroke-opacity:0; fill:none" points="
  307.381,1487.47 307.381,1470.19 
  "/>
<polyline clip-path="url(#clip3200)" style="stroke:#000000; stroke-width:4; stroke-opacity:0; fill:none" points="
  803.831,1487.47 803.831,1470.19 
  "/>
<polyline clip-path="url(#clip3200)" style="stroke:#000000; stroke-width:4; stroke-opacity:0; fill:none" points="
  1300.28,1487.47 1300.28,1470.19 
  "/>
<polyline clip-path="url(#clip3200)" style="stroke:#000000; stroke-width:4; stroke-opacity:0; fill:none" points="
  1796.73,1487.47 1796.73,1470.19 
  "/>
<polyline clip-path="url(#clip3200)" style="stroke:#000000; stroke-width:4; stroke-opacity:0; fill:none" points="
  2293.18,1487.47 2293.18,1470.19 
  "/>
<polyline clip-path="url(#clip3200)" style="stroke:#000000; stroke-width:4; stroke-opacity:0; fill:none" points="
  406.671,1487.47 406.671,1478.83 
  "/>
<polyline clip-path="url(#clip3200)" style="stroke:#000000; stroke-width:4; stroke-opacity:0; fill:none" points="
  505.961,1487.47 505.961,1478.83 
  "/>
<polyline clip-path="url(#clip3200)" style="stroke:#000000; stroke-width:4; stroke-opacity:0; fill:none" points="
  605.251,1487.47 605.251,1478.83 
  "/>
<polyline clip-path="url(#clip3200)" style="stroke:#000000; stroke-width:4; stroke-opacity:0; fill:none" points="
  704.541,1487.47 704.541,1478.83 
  "/>
<polyline clip-path="url(#clip3200)" style="stroke:#000000; stroke-width:4; stroke-opacity:0; fill:none" points="
  903.121,1487.47 903.121,1478.83 
  "/>
<polyline clip-path="url(#clip3200)" style="stroke:#000000; stroke-width:4; stroke-opacity:0; fill:none" points="
  1002.41,1487.47 1002.41,1478.83 
  "/>
<polyline clip-path="url(#clip3200)" style="stroke:#000000; stroke-width:4; stroke-opacity:0; fill:none" points="
  1101.7,1487.47 1101.7,1478.83 
  "/>
<polyline clip-path="url(#clip3200)" style="stroke:#000000; stroke-width:4; stroke-opacity:0; fill:none" points="
  1200.99,1487.47 1200.99,1478.83 
  "/>
<polyline clip-path="url(#clip3200)" style="stroke:#000000; stroke-width:4; stroke-opacity:0; fill:none" points="
  1399.57,1487.47 1399.57,1478.83 
  "/>
<polyline clip-path="url(#clip3200)" style="stroke:#000000; stroke-width:4; stroke-opacity:0; fill:none" points="
  1498.86,1487.47 1498.86,1478.83 
  "/>
<polyline clip-path="url(#clip3200)" style="stroke:#000000; stroke-width:4; stroke-opacity:0; fill:none" points="
  1598.15,1487.47 1598.15,1478.83 
  "/>
<polyline clip-path="url(#clip3200)" style="stroke:#000000; stroke-width:4; stroke-opacity:0; fill:none" points="
  1697.44,1487.47 1697.44,1478.83 
  "/>
<polyline clip-path="url(#clip3200)" style="stroke:#000000; stroke-width:4; stroke-opacity:0; fill:none" points="
  1896.02,1487.47 1896.02,1478.83 
  "/>
<polyline clip-path="url(#clip3200)" style="stroke:#000000; stroke-width:4; stroke-opacity:0; fill:none" points="
  1995.31,1487.47 1995.31,1478.83 
  "/>
<polyline clip-path="url(#clip3200)" style="stroke:#000000; stroke-width:4; stroke-opacity:0; fill:none" points="
  2094.6,1487.47 2094.6,1478.83 
  "/>
<polyline clip-path="url(#clip3200)" style="stroke:#000000; stroke-width:4; stroke-opacity:0; fill:none" points="
  2193.89,1487.47 2193.89,1478.83 
  "/>
<polyline clip-path="url(#clip3200)" style="stroke:#000000; stroke-width:4; stroke-opacity:0; fill:none" points="
  247.807,1446.74 273.066,1446.74 
  "/>
<polyline clip-path="url(#clip3200)" style="stroke:#000000; stroke-width:4; stroke-opacity:0; fill:none" points="
  247.807,1178.22 273.066,1178.22 
  "/>
<polyline clip-path="url(#clip3200)" style="stroke:#000000; stroke-width:4; stroke-opacity:0; fill:none" points="
  247.807,909.702 273.066,909.702 
  "/>
<polyline clip-path="url(#clip3200)" style="stroke:#000000; stroke-width:4; stroke-opacity:0; fill:none" points="
  247.807,641.182 273.066,641.182 
  "/>
<polyline clip-path="url(#clip3200)" style="stroke:#000000; stroke-width:4; stroke-opacity:0; fill:none" points="
  247.807,372.663 273.066,372.663 
  "/>
<polyline clip-path="url(#clip3200)" style="stroke:#000000; stroke-width:4; stroke-opacity:0; fill:none" points="
  247.807,104.143 273.066,104.143 
  "/>
<polyline clip-path="url(#clip3200)" style="stroke:#000000; stroke-width:4; stroke-opacity:0; fill:none" points="
  247.807,1393.04 260.437,1393.04 
  "/>
<polyline clip-path="url(#clip3200)" style="stroke:#000000; stroke-width:4; stroke-opacity:0; fill:none" points="
  247.807,1339.33 260.437,1339.33 
  "/>
<polyline clip-path="url(#clip3200)" style="stroke:#000000; stroke-width:4; stroke-opacity:0; fill:none" points="
  247.807,1285.63 260.437,1285.63 
  "/>
<polyline clip-path="url(#clip3200)" style="stroke:#000000; stroke-width:4; stroke-opacity:0; fill:none" points="
  247.807,1231.92 260.437,1231.92 
  "/>
<polyline clip-path="url(#clip3200)" style="stroke:#000000; stroke-width:4; stroke-opacity:0; fill:none" points="
  247.807,1124.52 260.437,1124.52 
  "/>
<polyline clip-path="url(#clip3200)" style="stroke:#000000; stroke-width:4; stroke-opacity:0; fill:none" points="
  247.807,1070.81 260.437,1070.81 
  "/>
<polyline clip-path="url(#clip3200)" style="stroke:#000000; stroke-width:4; stroke-opacity:0; fill:none" points="
  247.807,1017.11 260.437,1017.11 
  "/>
<polyline clip-path="url(#clip3200)" style="stroke:#000000; stroke-width:4; stroke-opacity:0; fill:none" points="
  247.807,963.405 260.437,963.405 
  "/>
<polyline clip-path="url(#clip3200)" style="stroke:#000000; stroke-width:4; stroke-opacity:0; fill:none" points="
  247.807,855.998 260.437,855.998 
  "/>
<polyline clip-path="url(#clip3200)" style="stroke:#000000; stroke-width:4; stroke-opacity:0; fill:none" points="
  247.807,802.294 260.437,802.294 
  "/>
<polyline clip-path="url(#clip3200)" style="stroke:#000000; stroke-width:4; stroke-opacity:0; fill:none" points="
  247.807,748.59 260.437,748.59 
  "/>
<polyline clip-path="url(#clip3200)" style="stroke:#000000; stroke-width:4; stroke-opacity:0; fill:none" points="
  247.807,694.886 260.437,694.886 
  "/>
<polyline clip-path="url(#clip3200)" style="stroke:#000000; stroke-width:4; stroke-opacity:0; fill:none" points="
  247.807,587.478 260.437,587.478 
  "/>
<polyline clip-path="url(#clip3200)" style="stroke:#000000; stroke-width:4; stroke-opacity:0; fill:none" points="
  247.807,533.774 260.437,533.774 
  "/>
<polyline clip-path="url(#clip3200)" style="stroke:#000000; stroke-width:4; stroke-opacity:0; fill:none" points="
  247.807,480.071 260.437,480.071 
  "/>
<polyline clip-path="url(#clip3200)" style="stroke:#000000; stroke-width:4; stroke-opacity:0; fill:none" points="
  247.807,426.367 260.437,426.367 
  "/>
<polyline clip-path="url(#clip3200)" style="stroke:#000000; stroke-width:4; stroke-opacity:0; fill:none" points="
  247.807,318.959 260.437,318.959 
  "/>
<polyline clip-path="url(#clip3200)" style="stroke:#000000; stroke-width:4; stroke-opacity:0; fill:none" points="
  247.807,265.255 260.437,265.255 
  "/>
<polyline clip-path="url(#clip3200)" style="stroke:#000000; stroke-width:4; stroke-opacity:0; fill:none" points="
  247.807,211.551 260.437,211.551 
  "/>
<polyline clip-path="url(#clip3200)" style="stroke:#000000; stroke-width:4; stroke-opacity:0; fill:none" points="
  247.807,157.847 260.437,157.847 
  "/>
<polyline clip-path="url(#clip3200)" style="stroke:#000000; stroke-width:4; stroke-opacity:0; fill:none" points="
  247.807,50.4395 260.437,50.4395 
  "/>
<g clip-path="url(#clip3200)">
<text style="fill:#000000; fill-opacity:1; font-family:Arial,Helvetica Neue,Helvetica,sans-serif; font-size:48px; text-anchor:middle;" transform="rotate(0, 307.381, 1541.47)" x="307.381" y="1541.47">0</text>
</g>
<g clip-path="url(#clip3200)">
<text style="fill:#000000; fill-opacity:1; font-family:Arial,Helvetica Neue,Helvetica,sans-serif; font-size:48px; text-anchor:middle;" transform="rotate(0, 803.831, 1541.47)" x="803.831" y="1541.47">25</text>
</g>
<g clip-path="url(#clip3200)">
<text style="fill:#000000; fill-opacity:1; font-family:Arial,Helvetica Neue,Helvetica,sans-serif; font-size:48px; text-anchor:middle;" transform="rotate(0, 1300.28, 1541.47)" x="1300.28" y="1541.47">50</text>
</g>
<g clip-path="url(#clip3200)">
<text style="fill:#000000; fill-opacity:1; font-family:Arial,Helvetica Neue,Helvetica,sans-serif; font-size:48px; text-anchor:middle;" transform="rotate(0, 1796.73, 1541.47)" x="1796.73" y="1541.47">75</text>
</g>
<g clip-path="url(#clip3200)">
<text style="fill:#000000; fill-opacity:1; font-family:Arial,Helvetica Neue,Helvetica,sans-serif; font-size:48px; text-anchor:middle;" transform="rotate(0, 2293.18, 1541.47)" x="2293.18" y="1541.47">100</text>
</g>
<g clip-path="url(#clip3200)">
<text style="fill:#000000; fill-opacity:1; font-family:Arial,Helvetica Neue,Helvetica,sans-serif; font-size:48px; text-anchor:end;" transform="rotate(0, 223.807, 1464.24)" x="223.807" y="1464.24">0</text>
</g>
<g clip-path="url(#clip3200)">
<text style="fill:#000000; fill-opacity:1; font-family:Arial,Helvetica Neue,Helvetica,sans-serif; font-size:48px; text-anchor:start;" transform="rotate(0, 93.6653, 1201.95)" x="93.6653" y="1201.95">1×10</text>
</g>
<g clip-path="url(#clip3200)">
<text style="fill:#000000; fill-opacity:1; font-family:Arial,Helvetica Neue,Helvetica,sans-serif; font-size:38px; text-anchor:start;" transform="rotate(0, 202.062, 1174.54)" x="202.062" y="1174.54">4</text>
</g>
<g clip-path="url(#clip3200)">
<text style="fill:#000000; fill-opacity:1; font-family:Arial,Helvetica Neue,Helvetica,sans-serif; font-size:48px; text-anchor:start;" transform="rotate(0, 93.6653, 933.429)" x="93.6653" y="933.429">2×10</text>
</g>
<g clip-path="url(#clip3200)">
<text style="fill:#000000; fill-opacity:1; font-family:Arial,Helvetica Neue,Helvetica,sans-serif; font-size:38px; text-anchor:start;" transform="rotate(0, 202.062, 906.019)" x="202.062" y="906.019">4</text>
</g>
<g clip-path="url(#clip3200)">
<text style="fill:#000000; fill-opacity:1; font-family:Arial,Helvetica Neue,Helvetica,sans-serif; font-size:48px; text-anchor:start;" transform="rotate(0, 93.6653, 664.91)" x="93.6653" y="664.91">3×10</text>
</g>
<g clip-path="url(#clip3200)">
<text style="fill:#000000; fill-opacity:1; font-family:Arial,Helvetica Neue,Helvetica,sans-serif; font-size:38px; text-anchor:start;" transform="rotate(0, 202.062, 637.499)" x="202.062" y="637.499">4</text>
</g>
<g clip-path="url(#clip3200)">
<text style="fill:#000000; fill-opacity:1; font-family:Arial,Helvetica Neue,Helvetica,sans-serif; font-size:48px; text-anchor:start;" transform="rotate(0, 93.6653, 396.39)" x="93.6653" y="396.39">4×10</text>
</g>
<g clip-path="url(#clip3200)">
<text style="fill:#000000; fill-opacity:1; font-family:Arial,Helvetica Neue,Helvetica,sans-serif; font-size:38px; text-anchor:start;" transform="rotate(0, 202.062, 368.98)" x="202.062" y="368.98">4</text>
</g>
<g clip-path="url(#clip3200)">
<text style="fill:#000000; fill-opacity:1; font-family:Arial,Helvetica Neue,Helvetica,sans-serif; font-size:48px; text-anchor:start;" transform="rotate(0, 93.6653, 127.871)" x="93.6653" y="127.871">5×10</text>
</g>
<g clip-path="url(#clip3200)">
<text style="fill:#000000; fill-opacity:1; font-family:Arial,Helvetica Neue,Helvetica,sans-serif; font-size:38px; text-anchor:start;" transform="rotate(0, 202.062, 100.461)" x="202.062" y="100.461">4</text>
</g>
<polyline clip-path="url(#clip3202)" style="stroke:#4477aa; stroke-width:4.8; stroke-opacity:1; fill:none" points="
  307.381,1446.71 327.239,1446.63 347.097,1446.5 366.955,1446.31 386.813,1446.07 406.671,1445.77 426.529,1445.42 446.387,1445.02 466.245,1444.57 486.103,1444.06 
  505.961,1443.49 525.819,1442.87 545.677,1442.2 565.535,1441.48 585.393,1440.7 605.251,1439.87 625.109,1438.98 644.967,1438.04 664.825,1437.05 684.683,1436 
  704.541,1434.9 724.399,1433.74 744.257,1432.54 764.115,1431.27 783.973,1429.96 803.831,1428.59 823.689,1427.17 843.547,1425.69 863.405,1424.16 883.263,1422.57 
  903.121,1420.94 922.979,1419.24 942.837,1417.5 962.695,1415.7 982.553,1413.85 1002.41,1411.94 1022.27,1409.98 1042.13,1407.97 1061.99,1405.9 1081.84,1403.78 
  1101.7,1401.6 1121.56,1399.37 1141.42,1397.09 1161.28,1394.75 1181.13,1392.37 1200.99,1389.92 1220.85,1387.42 1240.71,1384.87 1260.57,1382.27 1280.42,1379.61 
  1300.28,1376.9 1320.14,1374.13 1340,1371.31 1359.86,1368.44 1379.71,1365.51 1399.57,1362.53 1419.43,1359.5 1439.29,1356.41 1459.15,1353.27 1479,1350.07 
  1498.86,1346.82 1518.72,1343.52 1538.58,1340.16 1558.44,1336.75 1578.29,1333.29 1598.15,1329.77 1618.01,1326.2 1637.87,1322.58 1657.73,1318.9 1677.58,1315.17 
  1697.44,1311.38 1717.3,1307.54 1737.16,1303.65 1757.02,1299.7 1776.87,1295.7 1796.73,1291.64 1816.59,1287.54 1836.45,1283.37 1856.31,1279.16 1876.16,1274.89 
  1896.02,1270.56 1915.88,1266.19 1935.74,1261.76 1955.6,1257.27 1975.45,1252.74 1995.31,1248.14 2015.17,1243.5 2035.03,1238.8 2054.89,1234.05 2074.74,1229.24 
  2094.6,1224.38 2114.46,1219.47 2134.32,1214.5 2154.18,1209.48 2174.03,1204.4 2193.89,1199.27 2213.75,1194.09 2233.61,1188.85 2253.47,1183.56 2273.32,1178.22 
  2293.18,1172.82 
  "/>
<polyline clip-path="url(#clip3202)" style="stroke:#ee6677; stroke-width:4.8; stroke-opacity:1; fill:none" points="
  307.381,1446.71 327.239,1446.61 347.097,1446.42 366.955,1446.15 386.813,1445.8 406.671,1445.37 426.529,1444.86 446.387,1444.27 466.245,1443.6 486.103,1442.85 
  505.961,1442.01 525.819,1441.1 545.677,1440.11 565.535,1439.03 585.393,1437.88 605.251,1436.64 625.109,1435.33 644.967,1433.93 664.825,1432.46 684.683,1430.9 
  704.541,1429.26 724.399,1427.54 744.257,1425.74 764.115,1423.86 783.973,1421.9 803.831,1419.86 823.689,1417.74 843.547,1415.54 863.405,1413.26 883.263,1410.89 
  903.121,1408.45 922.979,1405.93 942.837,1403.32 962.695,1400.64 982.553,1397.87 1002.41,1395.02 1022.27,1392.1 1042.13,1389.09 1061.99,1386 1081.84,1382.83 
  1101.7,1379.58 1121.56,1376.25 1141.42,1372.84 1161.28,1369.35 1181.13,1365.78 1200.99,1362.13 1220.85,1358.4 1240.71,1354.58 1260.57,1350.69 1280.42,1346.72 
  1300.28,1342.66 1320.14,1338.53 1340,1334.31 1359.86,1330.01 1379.71,1325.64 1399.57,1321.18 1419.43,1316.64 1439.29,1312.02 1459.15,1307.33 1479,1302.55 
  1498.86,1297.69 1518.72,1292.74 1538.58,1287.72 1558.44,1282.62 1578.29,1277.44 1598.15,1272.18 1618.01,1266.83 1637.87,1261.41 1657.73,1255.9 1677.58,1250.32 
  1697.44,1244.65 1717.3,1238.91 1737.16,1233.08 1757.02,1227.17 1776.87,1221.18 1796.73,1215.12 1816.59,1208.97 1836.45,1202.74 1856.31,1196.43 1876.16,1190.04 
  1896.02,1183.56 1915.88,1177.01 1935.74,1170.38 1955.6,1163.67 1975.45,1156.87 1995.31,1150 2015.17,1143.04 2035.03,1136.01 2054.89,1128.89 2074.74,1121.7 
  2094.6,1114.42 2114.46,1107.06 2134.32,1099.63 2154.18,1092.11 2174.03,1084.51 2193.89,1076.83 2213.75,1069.07 2233.61,1061.23 2253.47,1053.31 2273.32,1045.3 
  2293.18,1037.22 
  "/>
<polyline clip-path="url(#clip3202)" style="stroke:#228833; stroke-width:4.8; stroke-opacity:1; fill:none" points="
  307.381,1446.71 327.239,1446.58 347.097,1446.34 366.955,1445.99 386.813,1445.53 406.671,1444.97 426.529,1444.3 446.387,1443.52 466.245,1442.63 486.103,1441.64 
  505.961,1440.54 525.819,1439.33 545.677,1438.01 565.535,1436.59 585.393,1435.06 605.251,1433.42 625.109,1431.68 644.967,1429.82 664.825,1427.86 684.683,1425.8 
  704.541,1423.62 724.399,1421.34 744.257,1418.95 764.115,1416.45 783.973,1413.85 803.831,1411.13 823.689,1408.32 843.547,1405.39 863.405,1402.35 883.263,1399.21 
  903.121,1395.96 922.979,1392.61 942.837,1389.14 962.695,1385.57 982.553,1381.89 1002.41,1378.11 1022.27,1374.21 1042.13,1370.21 1061.99,1366.1 1081.84,1361.89 
  1101.7,1357.57 1121.56,1353.13 1141.42,1348.6 1161.28,1343.95 1181.13,1339.2 1200.99,1334.34 1220.85,1329.37 1240.71,1324.3 1260.57,1319.11 1280.42,1313.82 
  1300.28,1308.43 1320.14,1302.92 1340,1297.31 1359.86,1291.59 1379.71,1285.76 1399.57,1279.83 1419.43,1273.79 1439.29,1267.64 1459.15,1261.38 1479,1255.02 
  1498.86,1248.55 1518.72,1241.97 1538.58,1235.28 1558.44,1228.49 1578.29,1221.59 1598.15,1214.58 1618.01,1207.46 1637.87,1200.24 1657.73,1192.91 1677.58,1185.47 
  1697.44,1177.93 1717.3,1170.27 1737.16,1162.51 1757.02,1154.64 1776.87,1146.67 1796.73,1138.59 1816.59,1130.4 1836.45,1122.1 1856.31,1113.7 1876.16,1105.18 
  1896.02,1096.56 1915.88,1087.84 1935.74,1079 1955.6,1070.06 1975.45,1061.01 1995.31,1051.86 2015.17,1042.59 2035.03,1033.22 2054.89,1023.74 2074.74,1014.16 
  2094.6,1004.46 2114.46,994.661 2134.32,984.753 2154.18,974.737 2174.03,964.614 2193.89,954.383 2213.75,944.045 2233.61,933.6 2253.47,923.047 2273.32,912.387 
  2293.18,901.619 
  "/>
<polyline clip-path="url(#clip3202)" style="stroke:#ccbb44; stroke-width:4.8; stroke-opacity:1; fill:none" points="
  307.381,1446.71 327.239,1446.55 347.097,1446.26 366.955,1445.83 386.813,1445.26 406.671,1444.57 426.529,1443.73 446.387,1442.77 466.245,1441.67 486.103,1440.43 
  505.961,1439.06 525.819,1437.56 545.677,1435.92 565.535,1434.15 585.393,1432.24 605.251,1430.2 625.109,1428.02 644.967,1425.72 664.825,1423.27 684.683,1420.69 
  704.541,1417.98 724.399,1415.14 744.257,1412.16 764.115,1409.04 783.973,1405.79 803.831,1402.41 823.689,1398.89 843.547,1395.24 863.405,1391.45 883.263,1387.53 
  903.121,1383.48 922.979,1379.29 942.837,1374.97 962.695,1370.51 982.553,1365.92 1002.41,1361.19 1022.27,1356.33 1042.13,1351.34 1061.99,1346.21 1081.84,1340.94 
  1101.7,1335.55 1121.56,1330.01 1141.42,1324.35 1161.28,1318.55 1181.13,1312.61 1200.99,1306.55 1220.85,1300.34 1240.71,1294.01 1260.57,1287.54 1280.42,1280.93 
  1300.28,1274.19 1320.14,1267.32 1340,1260.31 1359.86,1253.16 1379.71,1245.89 1399.57,1238.48 1419.43,1230.93 1439.29,1223.25 1459.15,1215.44 1479,1207.49 
  1498.86,1199.41 1518.72,1191.19 1538.58,1182.84 1558.44,1174.35 1578.29,1165.73 1598.15,1156.98 1618.01,1148.09 1637.87,1139.07 1657.73,1129.91 1677.58,1120.62 
  1697.44,1111.2 1717.3,1101.64 1737.16,1091.95 1757.02,1082.12 1776.87,1072.16 1796.73,1062.06 1816.59,1051.83 1836.45,1041.46 1856.31,1030.96 1876.16,1020.33 
  1896.02,1009.56 1915.88,998.662 1935.74,987.626 1955.6,976.455 1975.45,965.151 1995.31,953.712 2015.17,942.139 2035.03,930.431 2054.89,918.59 2074.74,906.614 
  2094.6,894.503 2114.46,882.259 2134.32,869.88 2154.18,857.367 2174.03,844.72 2193.89,831.938 2213.75,819.023 2233.61,805.972 2253.47,792.788 2273.32,779.47 
  2293.18,766.017 
  "/>
<polyline clip-path="url(#clip3202)" style="stroke:#66ccee; stroke-width:4.8; stroke-opacity:1; fill:none" points="
  307.381,1446.71 327.239,1446.53 347.097,1446.18 366.955,1445.67 386.813,1444.99 406.671,1444.16 426.529,1443.17 446.387,1442.01 466.245,1440.7 486.103,1439.22 
  505.961,1437.58 525.819,1435.78 545.677,1433.82 565.535,1431.7 585.393,1429.42 605.251,1426.98 625.109,1424.37 644.967,1421.61 664.825,1418.68 684.683,1415.59 
  704.541,1412.34 724.399,1408.93 744.257,1405.36 764.115,1401.63 783.973,1397.74 803.831,1393.68 823.689,1389.47 843.547,1385.09 863.405,1380.55 883.263,1375.85 
  903.121,1370.99 922.979,1365.97 942.837,1360.79 962.695,1355.44 982.553,1349.94 1002.41,1344.27 1022.27,1338.45 1042.13,1332.46 1061.99,1326.31 1081.84,1320 
  1101.7,1313.53 1121.56,1306.9 1141.42,1300.1 1161.28,1293.15 1181.13,1286.03 1200.99,1278.75 1220.85,1271.32 1240.71,1263.72 1260.57,1255.96 1280.42,1248.04 
  1300.28,1239.95 1320.14,1231.71 1340,1223.31 1359.86,1214.74 1379.71,1206.01 1399.57,1197.12 1419.43,1188.08 1439.29,1178.87 1459.15,1169.49 1479,1159.96 
  1498.86,1150.27 1518.72,1140.41 1538.58,1130.4 1558.44,1120.22 1578.29,1109.88 1598.15,1099.38 1618.01,1088.72 1637.87,1077.9 1657.73,1066.92 1677.58,1055.78 
  1697.44,1044.47 1717.3,1033.01 1737.16,1021.38 1757.02,1009.59 1776.87,997.642 1796.73,985.531 1816.59,973.26 1836.45,960.828 1856.31,948.234 1876.16,935.479 
  1896.02,922.564 1915.88,909.487 1935.74,896.249 1955.6,882.85 1975.45,869.289 1995.31,855.568 2015.17,841.686 2035.03,827.642 2054.89,813.437 2074.74,799.072 
  2094.6,784.545 2114.46,769.857 2134.32,755.008 2154.18,739.997 2174.03,724.826 2193.89,709.493 2213.75,694 2233.61,678.345 2253.47,662.529 2273.32,646.553 
  2293.18,630.415 
  "/>
<polyline clip-path="url(#clip3202)" style="stroke:#aa3377; stroke-width:4.8; stroke-opacity:1; fill:none" points="
  307.381,1446.71 327.239,1446.5 347.097,1446.1 366.955,1445.51 386.813,1444.73 406.671,1443.76 426.529,1442.61 446.387,1441.26 466.245,1439.73 486.103,1438.01 
  505.961,1436.11 525.819,1434.01 545.677,1431.73 565.535,1429.26 585.393,1426.6 605.251,1423.76 625.109,1420.72 644.967,1417.5 664.825,1414.09 684.683,1410.49 
  704.541,1406.7 724.399,1402.73 744.257,1398.57 764.115,1394.22 783.973,1389.68 803.831,1384.95 823.689,1380.04 843.547,1374.94 863.405,1369.65 883.263,1364.17 
  903.121,1358.5 922.979,1352.65 942.837,1346.61 962.695,1340.38 982.553,1333.96 1002.41,1327.36 1022.27,1320.56 1042.13,1313.58 1061.99,1306.41 1081.84,1299.05 
  1101.7,1291.51 1121.56,1283.78 1141.42,1275.85 1161.28,1267.75 1181.13,1259.45 1200.99,1250.96 1220.85,1242.29 1240.71,1233.43 1260.57,1224.38 1280.42,1215.14 
  1300.28,1205.72 1320.14,1196.1 1340,1186.3 1359.86,1176.31 1379.71,1166.14 1399.57,1155.77 1419.43,1145.22 1439.29,1134.48 1459.15,1123.55 1479,1112.43 
  1498.86,1101.13 1518.72,1089.64 1538.58,1077.96 1558.44,1066.09 1578.29,1054.03 1598.15,1041.79 1618.01,1029.35 1637.87,1016.73 1657.73,1003.92 1677.58,990.929 
  1697.44,977.744 1717.3,964.372 1737.16,950.812 1757.02,937.064 1776.87,923.128 1796.73,909.003 1816.59,894.691 1836.45,880.191 1856.31,865.503 1876.16,850.627 
  1896.02,835.563 1915.88,820.311 1935.74,804.872 1955.6,789.244 1975.45,773.428 1995.31,757.424 2015.17,741.232 2035.03,724.853 2054.89,708.285 2074.74,691.53 
  2094.6,674.586 2114.46,657.454 2134.32,640.135 2154.18,622.627 2174.03,604.932 2193.89,587.049 2213.75,568.977 2233.61,550.718 2253.47,532.271 2273.32,513.635 
  2293.18,494.812 
  "/>
<polyline clip-path="url(#clip3202)" style="stroke:#bbbbbb; stroke-width:4.8; stroke-opacity:1; fill:none" points="
  307.381,1446.71 327.239,1446.47 347.097,1446.02 366.955,1445.34 386.813,1444.46 406.671,1443.36 426.529,1442.04 446.387,1440.51 466.245,1438.77 486.103,1436.81 
  505.961,1434.63 525.819,1432.24 545.677,1429.64 565.535,1426.82 585.393,1423.78 605.251,1420.53 625.109,1417.07 644.967,1413.39 664.825,1409.5 684.683,1405.39 
  704.541,1401.07 724.399,1396.53 744.257,1391.77 764.115,1386.81 783.973,1381.62 803.831,1376.23 823.689,1370.62 843.547,1364.79 863.405,1358.75 883.263,1352.49 
  903.121,1346.02 922.979,1339.33 942.837,1332.43 962.695,1325.32 982.553,1317.99 1002.41,1310.44 1022.27,1302.68 1042.13,1294.7 1061.99,1286.51 1081.84,1278.11 
  1101.7,1269.49 1121.56,1260.66 1141.42,1251.61 1161.28,1242.34 1181.13,1232.86 1200.99,1223.17 1220.85,1213.26 1240.71,1203.14 1260.57,1192.8 1280.42,1182.25 
  1300.28,1171.48 1320.14,1160.5 1340,1149.3 1359.86,1137.89 1379.71,1126.26 1399.57,1114.42 1419.43,1102.36 1439.29,1090.09 1459.15,1077.61 1479,1064.91 
  1498.86,1051.99 1518.72,1038.86 1538.58,1025.51 1558.44,1011.95 1578.29,998.179 1598.15,984.189 1618.01,969.984 1637.87,955.565 1657.73,940.93 1677.58,926.081 
  1697.44,911.017 1717.3,895.739 1737.16,880.245 1757.02,864.537 1776.87,848.613 1796.73,832.475 1816.59,816.123 1836.45,799.555 1856.31,782.772 1876.16,765.775 
  1896.02,748.563 1915.88,731.136 1935.74,713.494 1955.6,695.638 1975.45,677.567 1995.31,659.28 2015.17,640.779 2035.03,622.064 2054.89,603.133 2074.74,583.988 
  2094.6,564.627 2114.46,545.052 2134.32,525.262 2154.18,505.258 2174.03,485.038 2193.89,464.604 2213.75,443.955 2233.61,423.091 2253.47,402.012 2273.32,380.718 
  2293.18,359.21 
  "/>
<polyline clip-path="url(#clip3202)" style="stroke:#4477aa; stroke-width:4.8; stroke-opacity:1; fill:none" points="
  307.381,1446.71 327.239,1446.44 347.097,1445.93 366.955,1445.18 386.813,1444.19 406.671,1442.95 426.529,1441.48 446.387,1439.76 466.245,1437.8 486.103,1435.6 
  505.961,1433.15 525.819,1430.47 545.677,1427.54 565.535,1424.37 585.393,1420.96 605.251,1417.31 625.109,1413.42 644.967,1409.28 664.825,1404.91 684.683,1400.29 
  704.541,1395.43 724.399,1390.32 744.257,1384.98 764.115,1379.4 783.973,1373.57 803.831,1367.5 823.689,1361.19 843.547,1354.64 863.405,1347.84 883.263,1340.81 
  903.121,1333.53 922.979,1326.01 942.837,1318.25 962.695,1310.25 982.553,1302.01 1002.41,1293.52 1022.27,1284.8 1042.13,1275.83 1061.99,1266.62 1081.84,1257.17 
  1101.7,1247.47 1121.56,1237.54 1141.42,1227.36 1161.28,1216.94 1181.13,1206.28 1200.99,1195.38 1220.85,1184.24 1240.71,1172.85 1260.57,1161.22 1280.42,1149.36 
  1300.28,1137.24 1320.14,1124.89 1340,1112.3 1359.86,1099.46 1379.71,1086.39 1399.57,1073.07 1419.43,1059.51 1439.29,1045.71 1459.15,1031.66 1479,1017.38 
  1498.86,1002.85 1518.72,988.082 1538.58,973.072 1558.44,957.82 1578.29,942.327 1598.15,926.591 1618.01,910.615 1637.87,894.396 1657.73,877.936 1677.58,861.234 
  1697.44,844.29 1717.3,827.105 1737.16,809.678 1757.02,792.009 1776.87,774.099 1796.73,755.947 1816.59,737.554 1836.45,718.919 1856.31,700.042 1876.16,680.923 
  1896.02,661.563 1915.88,641.961 1935.74,622.117 1955.6,602.032 1975.45,581.705 1995.31,561.137 2015.17,540.326 2035.03,519.274 2054.89,497.981 2074.74,476.445 
  2094.6,454.669 2114.46,432.65 2134.32,410.39 2154.18,387.888 2174.03,365.144 2193.89,342.159 2213.75,318.932 2233.61,295.463 2253.47,271.753 2273.32,247.801 
  2293.18,223.608 
  "/>
<polyline clip-path="url(#clip3202)" style="stroke:#ee6677; stroke-width:4.8; stroke-opacity:1; fill:none" points="
  307.381,1446.71 327.239,1446.42 347.097,1445.85 366.955,1445.02 386.813,1443.92 406.671,1442.55 426.529,1440.91 446.387,1439.01 466.245,1436.83 486.103,1434.39 
  505.961,1431.68 525.819,1428.7 545.677,1425.45 565.535,1421.93 585.393,1418.14 605.251,1414.09 625.109,1409.77 644.967,1405.17 664.825,1400.31 684.683,1395.18 
  704.541,1389.79 724.399,1384.12 744.257,1378.19 764.115,1371.98 783.973,1365.51 803.831,1358.77 823.689,1351.77 843.547,1344.49 863.405,1336.94 883.263,1329.13 
  903.121,1321.05 922.979,1312.7 942.837,1304.08 962.695,1295.19 982.553,1286.03 1002.41,1276.61 1022.27,1266.91 1042.13,1256.95 1061.99,1246.72 1081.84,1236.22 
  1101.7,1225.45 1121.56,1214.42 1141.42,1203.11 1161.28,1191.54 1181.13,1179.7 1200.99,1167.59 1220.85,1155.21 1240.71,1142.56 1260.57,1129.65 1280.42,1116.46 
  1300.28,1103.01 1320.14,1089.29 1340,1075.3 1359.86,1061.04 1379.71,1046.51 1399.57,1031.72 1419.43,1016.65 1439.29,1001.32 1459.15,985.719 1479,969.85 
  1498.86,953.712 1518.72,937.305 1538.58,920.63 1558.44,903.687 1578.29,886.475 1598.15,868.994 1618.01,851.245 1637.87,833.227 1657.73,814.941 1677.58,796.386 
  1697.44,777.563 1717.3,758.471 1737.16,739.111 1757.02,719.482 1776.87,699.585 1796.73,679.419 1816.59,658.985 1836.45,638.282 1856.31,617.311 1876.16,596.071 
  1896.02,574.562 1915.88,552.786 1935.74,530.74 1955.6,508.426 1975.45,485.844 1995.31,462.993 2015.17,439.873 2035.03,416.485 2054.89,392.829 2074.74,368.903 
  2094.6,344.71 2114.46,320.248 2134.32,295.517 2154.18,270.518 2174.03,245.25 2193.89,219.714 2213.75,193.909 2233.61,167.836 2253.47,141.494 2273.32,114.884 
  2293.18,88.0053 
  "/>
<path clip-path="url(#clip3200)" d="
M1908.29 735.564 L2280.76 735.564 L2280.76 130.764 L1908.29 130.764  Z
  " fill="#ffffff" fill-rule="evenodd" fill-opacity="0.9"/>
<polyline clip-path="url(#clip3200)" style="stroke:#222255; stroke-width:4; stroke-opacity:0.1; fill:none" points="
  1908.29,735.564 2280.76,735.564 2280.76,130.764 1908.29,130.764 1908.29,735.564 
  "/>
<polyline clip-path="url(#clip3200)" style="stroke:#4477aa; stroke-width:4.8; stroke-opacity:1; fill:none" points="
  1932.29,191.244 2076.29,191.244 
  "/>
<g clip-path="url(#clip3200)">
<text style="fill:#000000; fill-opacity:1; font-family:Arial,Helvetica Neue,Helvetica,sans-serif; font-size:48px; text-anchor:start;" transform="rotate(0, 2100.29, 208.744)" x="2100.29" y="208.744">k = 2</text>
</g>
<polyline clip-path="url(#clip3200)" style="stroke:#ee6677; stroke-width:4.8; stroke-opacity:1; fill:none" points="
  1932.29,251.724 2076.29,251.724 
  "/>
<g clip-path="url(#clip3200)">
<text style="fill:#000000; fill-opacity:1; font-family:Arial,Helvetica Neue,Helvetica,sans-serif; font-size:48px; text-anchor:start;" transform="rotate(0, 2100.29, 269.224)" x="2100.29" y="269.224">k = 3</text>
</g>
<polyline clip-path="url(#clip3200)" style="stroke:#228833; stroke-width:4.8; stroke-opacity:1; fill:none" points="
  1932.29,312.204 2076.29,312.204 
  "/>
<g clip-path="url(#clip3200)">
<text style="fill:#000000; fill-opacity:1; font-family:Arial,Helvetica Neue,Helvetica,sans-serif; font-size:48px; text-anchor:start;" transform="rotate(0, 2100.29, 329.704)" x="2100.29" y="329.704">k = 4</text>
</g>
<polyline clip-path="url(#clip3200)" style="stroke:#ccbb44; stroke-width:4.8; stroke-opacity:1; fill:none" points="
  1932.29,372.684 2076.29,372.684 
  "/>
<g clip-path="url(#clip3200)">
<text style="fill:#000000; fill-opacity:1; font-family:Arial,Helvetica Neue,Helvetica,sans-serif; font-size:48px; text-anchor:start;" transform="rotate(0, 2100.29, 390.184)" x="2100.29" y="390.184">k = 5</text>
</g>
<polyline clip-path="url(#clip3200)" style="stroke:#66ccee; stroke-width:4.8; stroke-opacity:1; fill:none" points="
  1932.29,433.164 2076.29,433.164 
  "/>
<g clip-path="url(#clip3200)">
<text style="fill:#000000; fill-opacity:1; font-family:Arial,Helvetica Neue,Helvetica,sans-serif; font-size:48px; text-anchor:start;" transform="rotate(0, 2100.29, 450.664)" x="2100.29" y="450.664">k = 6</text>
</g>
<polyline clip-path="url(#clip3200)" style="stroke:#aa3377; stroke-width:4.8; stroke-opacity:1; fill:none" points="
  1932.29,493.644 2076.29,493.644 
  "/>
<g clip-path="url(#clip3200)">
<text style="fill:#000000; fill-opacity:1; font-family:Arial,Helvetica Neue,Helvetica,sans-serif; font-size:48px; text-anchor:start;" transform="rotate(0, 2100.29, 511.144)" x="2100.29" y="511.144">k = 7</text>
</g>
<polyline clip-path="url(#clip3200)" style="stroke:#bbbbbb; stroke-width:4.8; stroke-opacity:1; fill:none" points="
  1932.29,554.124 2076.29,554.124 
  "/>
<g clip-path="url(#clip3200)">
<text style="fill:#000000; fill-opacity:1; font-family:Arial,Helvetica Neue,Helvetica,sans-serif; font-size:48px; text-anchor:start;" transform="rotate(0, 2100.29, 571.624)" x="2100.29" y="571.624">k = 8</text>
</g>
<polyline clip-path="url(#clip3200)" style="stroke:#4477aa; stroke-width:4.8; stroke-opacity:1; fill:none" points="
  1932.29,614.604 2076.29,614.604 
  "/>
<g clip-path="url(#clip3200)">
<text style="fill:#000000; fill-opacity:1; font-family:Arial,Helvetica Neue,Helvetica,sans-serif; font-size:48px; text-anchor:start;" transform="rotate(0, 2100.29, 632.104)" x="2100.29" y="632.104">k = 9</text>
</g>
<polyline clip-path="url(#clip3200)" style="stroke:#ee6677; stroke-width:4.8; stroke-opacity:1; fill:none" points="
  1932.29,675.084 2076.29,675.084 
  "/>
<g clip-path="url(#clip3200)">
<text style="fill:#000000; fill-opacity:1; font-family:Arial,Helvetica Neue,Helvetica,sans-serif; font-size:48px; text-anchor:start;" transform="rotate(0, 2100.29, 692.584)" x="2100.29" y="692.584">k = 10</text>
</g>
</svg>
